<?xml version="1.0" standalone="no"?>
<!DOCTYPE svg PUBLIC "-//W3C//DTD SVG 20010904//EN"
 "http://www.w3.org/TR/2001/REC-SVG-20010904/DTD/svg10.dtd">
<svg version="1.0" xmlns="http://www.w3.org/2000/svg"
 width="225.000000pt" height="225.000000pt" viewBox="0 0 225.000000 225.000000"
 preserveAspectRatio="xMidYMid meet">
<metadata>
Created by potrace 1.11, written by Peter Selinger 2001-2013
</metadata>
<g transform="translate(0.000000,225.000000) scale(0.100000,-0.100000)"
fill="#000000" stroke="none">
<path d="M1117 2170 c-3 -25 -20 -137 -37 -250 -17 -113 -36 -243 -43 -290
l-13 -85 101 0 101 0 -12 80 c-7 44 -26 176 -44 294 -17 117 -35 232 -39 255
l-7 41 -7 -45z"/>
<path d="M553 1621 l202 -268 55 57 c30 32 64 62 75 68 11 6 18 12 15 15 -18
15 -541 397 -544 397 -2 0 87 -121 197 -269z"/>
<path d="M1630 1699 c-140 -104 -262 -194 -270 -199 -13 -9 -12 -12 5 -21 11
-6 45 -37 75 -69 l55 -57 202 268 c110 148 198 269 195 268 -4 0 -122 -86
-262 -190z"/>
<path d="M1035 1457 c-105 -35 -187 -105 -228 -195 -33 -71 -31 -198 4 -272
36 -77 77 -121 151 -161 60 -32 68 -34 163 -34 95 0 103 2 163 34 74 40 115
84 151 161 22 46 26 69 26 140 0 102 -21 155 -89 228 -84 89 -236 133 -341 99z"/>
<path d="M640 1219 c-30 -4 -176 -26 -323 -48 -148 -22 -271 -41 -273 -43 -2
-3 640 -99 656 -98 3 0 5 45 5 100 0 55 -2 99 -5 99 -3 -1 -30 -5 -60 -10z"/>
<path d="M1545 1129 c0 -54 2 -99 5 -99 15 -1 659 95 656 98 -4 3 -116 20
-441 67 -93 14 -181 27 -195 29 l-25 5 0 -100z"/>
<path d="M547 626 l-206 -275 278 205 279 205 -71 69 c-39 39 -72 70 -73 70
-1 0 -94 -123 -207 -274z"/>
<path d="M1418 829 l-66 -68 279 -205 278 -205 -206 275 c-113 151 -208 273
-212 272 -3 -1 -36 -32 -73 -69z"/>
<path d="M1027 696 c2 -12 24 -160 49 -331 25 -171 46 -314 47 -319 2 -4 24
137 50 315 26 178 49 331 51 340 3 13 -4 14 -49 7 -31 -6 -72 -6 -102 0 -47 8
-49 8 -46 -12z"/>
</g>
</svg>
