<?xml version="1.0" standalone="no"?>
<!DOCTYPE svg PUBLIC "-//W3C//DTD SVG 20010904//EN"
 "http://www.w3.org/TR/2001/REC-SVG-20010904/DTD/svg10.dtd">
<svg version="1.0" xmlns="http://www.w3.org/2000/svg"
 width="225.000000pt" height="225.000000pt" viewBox="0 0 225.000000 225.000000"
 preserveAspectRatio="xMidYMid meet">
<metadata>
Created by potrace 1.11, written by Peter Selinger 2001-2013
</metadata>
<g transform="translate(0.000000,225.000000) scale(0.100000,-0.100000)"
fill="#000000" stroke="none">
<path d="M1121 2220 c-1 -10 -100 -675 -101 -675 0 0 48 0 106 0 l105 0 -5 30
c-3 17 -26 167 -51 335 -44 294 -52 342 -54 310z"/>
<path d="M546 1625 c114 -151 209 -275 213 -275 3 0 19 18 35 40 17 22 47 52
68 66 21 15 38 30 38 33 0 7 -545 411 -555 411 -3 0 88 -124 201 -275z"/>
<path d="M1625 1699 c-148 -110 -271 -203 -273 -208 -1 -4 15 -20 36 -34 21
-15 51 -45 68 -67 16 -22 32 -40 35 -40 4 0 99 124 213 275 113 151 203 275
199 274 -5 0 -129 -90 -278 -200z"/>
<path d="M1006 1451 c-140 -57 -216 -160 -224 -306 -3 -65 0 -91 18 -137 41
-110 144 -194 266 -218 146 -29 304 51 371 189 25 49 28 67 28 151 0 84 -3
101 -28 148 -63 120 -167 185 -302 189 -61 2 -92 -2 -129 -16z"/>
<path d="M650 1223 c-14 -2 -162 -24 -329 -49 -167 -24 -306 -45 -307 -47 -2
-2 38 -8 89 -15 51 -7 207 -29 347 -50 l255 -38 0 103 c0 111 3 106 -55 96z"/>
<path d="M1545 1128 l0 -104 255 38 c140 21 296 43 347 50 51 7 91 13 89 15
-1 2 -142 23 -312 48 -170 25 -325 48 -344 51 l-35 5 0 -103z"/>
<path d="M542 625 l-212 -285 172 127 c95 70 225 165 289 212 l115 86 -40 30
c-22 17 -54 49 -71 72 -16 23 -32 42 -35 42 -3 0 -101 -128 -218 -284z"/>
<path d="M1455 867 c-17 -23 -49 -55 -71 -72 l-40 -30 115 -86 c64 -47 194
-142 289 -212 l172 -127 -212 285 c-117 156 -215 284 -218 284 -3 0 -19 -19
-35 -42z"/>
<path d="M1020 710 c0 -3 11 -75 24 -160 13 -85 37 -240 52 -344 16 -103 29
-184 30 -180 2 5 14 88 29 184 14 96 37 248 50 337 14 89 25 163 25 165 0 1
-47 3 -105 3 -58 0 -105 -2 -105 -5z"/>
</g>
</svg>
