<?xml version="1.0" standalone="no"?>
<!DOCTYPE svg PUBLIC "-//W3C//DTD SVG 20010904//EN"
 "http://www.w3.org/TR/2001/REC-SVG-20010904/DTD/svg10.dtd">
<svg version="1.0" xmlns="http://www.w3.org/2000/svg"
 width="512.000000pt" height="512.000000pt" viewBox="0 0 512.000000 512.000000"
 preserveAspectRatio="xMidYMid meet">
<metadata>
Created by potrace 1.11, written by Peter Selinger 2001-2013
</metadata>
<g transform="translate(0.000000,512.000000) scale(0.100000,-0.100000)"
fill="#000000" stroke="none">
<path d="M2509 5103 c-31 -23 -36 -68 -35 -347 l1 -268 28 -24 c36 -31 78 -31
114 0 l28 24 1 274 c1 202 -3 281 -12 306 -19 48 -81 65 -125 35z"/>
<path d="M3337 4678 c-38 -35 -131 -278 -122 -318 12 -55 80 -81 126 -49 32
22 133 263 131 313 -1 39 -41 76 -82 76 -16 0 -40 -10 -53 -22z"/>
<path d="M1675 4683 c-33 -8 -65 -44 -65 -74 0 -24 51 -157 101 -264 30 -63
79 -81 129 -45 44 32 45 60 4 163 -65 163 -83 196 -114 212 -16 8 -30 14 -32
14 -2 -1 -12 -3 -23 -6z"/>
<path d="M626 4495 c-28 -26 -34 -62 -14 -98 18 -35 506 -517 533 -527 56 -21
119 33 108 94 -4 21 -80 103 -269 292 -241 242 -266 264 -297 264 -22 0 -43
-8 -61 -25z"/>
<path d="M4140 4260 c-143 -142 -264 -270 -270 -284 -22 -58 33 -121 94 -109
22 5 98 74 281 257 139 138 257 261 263 273 31 58 -7 123 -73 123 -33 0 -53
-17 -295 -260z"/>
<path d="M2498 4265 c-2 -1 -39 -5 -83 -8 -110 -8 -145 -14 -260 -42 -611
-146 -1097 -629 -1249 -1243 -166 -667 85 -1368 635 -1777 271 -202 555 -308
894 -334 88 -7 234 -5 298 3 18 2 57 7 87 11 72 9 228 48 310 78 99 36 119 45
194 83 446 225 769 629 890 1114 23 91 27 112 41 225 17 141 8 371 -20 515
-123 628 -614 1152 -1233 1317 -52 13 -108 27 -123 29 -16 2 -44 6 -61 9 -83
13 -312 27 -320 20z"/>
<path d="M4460 3460 c-63 -28 -125 -55 -136 -61 -70 -36 -40 -153 39 -153 31
0 265 93 296 117 40 33 31 114 -15 136 -40 18 -62 13 -184 -39z"/>
<path d="M474 3470 c-53 -21 -70 -92 -31 -133 23 -25 265 -127 302 -127 30 0
61 26 73 59 8 23 7 37 -6 63 -15 29 -32 39 -142 84 -146 59 -168 65 -196 54z"/>
<path d="M63 2638 c-51 -13 -73 -60 -53 -113 18 -47 47 -51 345 -51 l275 1 25
27 c32 35 32 78 1 115 l-24 28 -269 0 c-148 1 -283 -3 -300 -7z"/>
<path d="M4503 2642 c-30 -4 -63 -48 -63 -83 0 -15 11 -40 24 -56 l24 -28 274
-1 c150 0 284 3 298 6 35 9 63 61 55 100 -13 61 -29 64 -324 65 -146 0 -276
-1 -288 -3z"/>
<path d="M4341 1897 c-14 -6 -30 -26 -37 -43 -11 -26 -10 -36 4 -65 15 -31 31
-40 157 -90 89 -37 148 -55 165 -52 62 11 91 85 53 132 -18 21 -271 131 -302
131 -9 0 -27 -6 -40 -13z"/>
<path d="M600 1821 c-140 -60 -174 -88 -165 -136 2 -11 4 -23 4 -27 2 -18 48
-48 73 -48 26 0 146 46 265 102 86 40 79 144 -12 162 -23 4 -62 -8 -165 -53z"/>
<path d="M1129 1242 c-15 -9 -139 -131 -278 -269 -234 -235 -251 -255 -251
-288 0 -49 36 -85 85 -85 33 0 53 17 295 259 143 143 264 270 269 283 28 74
-55 143 -120 100z"/>
<path d="M3908 1244 c-42 -22 -57 -74 -32 -112 9 -14 129 -138 265 -275 222
-221 253 -250 287 -254 51 -7 81 19 89 74 l5 41 -266 266 c-146 146 -272 266
-278 267 -7 0 -20 2 -29 4 -8 1 -27 -3 -41 -11z"/>
<path d="M3295 830 c-45 -18 -63 -74 -40 -124 7 -17 26 -60 40 -96 50 -122 64
-147 90 -164 34 -22 78 -13 105 21 28 36 26 57 -21 169 -68 165 -77 181 -111
193 -35 13 -36 13 -63 1z"/>
<path d="M1807 819 c-16 -4 -34 -13 -42 -19 -19 -16 -118 -268 -118 -302 0
-64 82 -101 132 -60 23 18 131 271 131 306 -1 47 -57 88 -103 75z"/>
<path d="M2503 656 l-28 -24 -1 -273 c0 -151 4 -286 9 -302 15 -44 77 -69 117
-47 43 23 47 49 46 344 l-1 278 -28 24 c-36 31 -78 31 -114 0z"/>
</g>
</svg>
